<svg width="12" height="12" viewBox="0 0 12 12" fill="none" xmlns="http://www.w3.org/2000/svg">
<circle cx="6" cy="6" r="6" fill="#005BAA"/>
<path d="M4.89158 8.03205L4.8922 8.03136L3.22472 6.16229C3.16842 6.09705 3.13724 6.00965 3.13789 5.91889C3.13853 5.82814 3.17095 5.7413 3.22817 5.67708C3.28538 5.61286 3.36281 5.5764 3.44377 5.57554C3.52474 5.57469 3.60276 5.60952 3.66104 5.67252L5.32852 7.54194L8.60388 3.87129C8.63237 3.83823 8.66644 3.81187 8.70412 3.79373C8.74179 3.77559 8.78231 3.76604 8.82331 3.76564C8.86431 3.76524 8.90497 3.774 8.94292 3.7914C8.98087 3.8088 9.01535 3.8345 9.04434 3.867C9.07334 3.8995 9.09627 3.93815 9.11179 3.98068C9.12732 4.02322 9.13513 4.0688 9.13478 4.11476C9.13442 4.16072 9.1259 4.20613 9.10972 4.24836C9.09353 4.29059 9.07001 4.32878 9.04052 4.36071L5.54653 8.27676C5.48862 8.34165 5.41009 8.3781 5.32821 8.3781C5.24633 8.3781 5.1678 8.34165 5.10989 8.27676L4.89158 8.03205Z" fill="white"/>
</svg>
